<svg xmlns="http://www.w3.org/2000/svg" xmlns:xlink="http://www.w3.org/1999/xlink" width="494" height="396" contentScriptType="application/ecmascript" contentStyleType="text/css" style="width:494px;height:396px" preserveAspectRatio="none" version="1.1" viewBox="0 0 494 396" zoomAndPan="magnify"><defs><filter id="f119kt8xprv8n6" width="300%" height="300%" x="-1" y="-1"><feGaussianBlur result="blurOut" stdDeviation="2"/><feColorMatrix in="blurOut" result="blurOut2" type="matrix" values="0 0 0 0 0 0 0 0 0 0 0 0 0 0 0 0 0 0 .4 0"/><feOffset dx="4" dy="4" in="blurOut2" result="blurOut3"/><feBlend in="SourceGraphic" in2="blurOut3" mode="normal"/></filter></defs><g><polygon fill="#FFF" points="14 119 24 109 472 109 472 374 462 384 14 384 14 119" filter="url(#f119kt8xprv8n6)" style="stroke:#000;stroke-width:1.5"/><line style="stroke:#000;stroke-width:1.5" x1="462" x2="471" y1="119" y2="110"/><line style="stroke:#000;stroke-width:1.5" x1="14" x2="462" y1="119" y2="119"/><line style="stroke:#000;stroke-width:1.5" x1="462" x2="462" y1="119" y2="384"/><text x="163" y="135.535" fill="#000" font-family="sans-serif" font-size="14" font-weight="bold" lengthAdjust="spacingAndGlyphs" textLength="152">Core Node Data Flow</text><path fill="none" d="M26.5,145 L26.5,169 M26.5,157 L43.5,157" filter="url(#f119kt8xprv8n6)" style="stroke:#a80036;stroke-width:2"/><ellipse cx="55.5" cy="157" fill="#FEFECE" filter="url(#f119kt8xprv8n6)" rx="12" ry="12" style="stroke:#a80036;stroke-width:2"/><text x="36" y="186.535" fill="#000" font-family="sans-serif" font-size="14" lengthAdjust="spacingAndGlyphs" textLength="22">API</text><path fill="#FBFB77" d="M22,339.5 L22,364.8105 A0,0 0 0 0 22,364.8105 L128,364.8105 A0,0 0 0 0 128,364.8105 L128,349.5 L118,339.5 L77.067,339.5 L50.6032,189.0642 L69.067,339.5 L22,339.5 A0,0 0 0 0 22,339.5" filter="url(#f119kt8xprv8n6)" style="stroke:#a80036;stroke-width:1"/><path fill="#FBFB77" d="M118,339.5 L118,349.5 L128,349.5 L118,339.5" style="stroke:#a80036;stroke-width:1"/><text x="28" y="357.068" fill="#000" font-family="sans-serif" font-size="13" lengthAdjust="spacingAndGlyphs" textLength="85">Out of scope!</text><ellipse cx="147" cy="157" fill="#FEFECE" filter="url(#f119kt8xprv8n6)" rx="12" ry="12" style="stroke:#a80036;stroke-width:2"/><polygon fill="#A80036" points="143 145 149 140 147 145 149 150 143 145" style="stroke:#a80036;stroke-width:1"/><text x="107" y="186.535" fill="#000" font-family="sans-serif" font-size="14" lengthAdjust="spacingAndGlyphs" textLength="80">Atom Pump</text><path fill="none" d="M229.5,145 L229.5,169 M229.5,157 L246.5,157" filter="url(#f119kt8xprv8n6)" style="stroke:#a80036;stroke-width:2"/><ellipse cx="258.5" cy="157" fill="#FEFECE" filter="url(#f119kt8xprv8n6)" rx="12" ry="12" style="stroke:#a80036;stroke-width:2"/><text x="222" y="186.535" fill="#000" font-family="sans-serif" font-size="14" lengthAdjust="spacingAndGlyphs" textLength="56">AtomOS</text><ellipse cx="356" cy="344" fill="#FEFECE" filter="url(#f119kt8xprv8n6)" rx="12" ry="12" style="stroke:#a80036;stroke-width:2"/><polygon fill="#A80036" points="352 332 358 327 356 332 358 337 352 332" style="stroke:#a80036;stroke-width:1"/><text x="289.5" y="373.535" fill="#000" font-family="sans-serif" font-size="14" lengthAdjust="spacingAndGlyphs" textLength="133">Constraint Machine</text><ellipse cx="337" cy="157" fill="#FEFECE" filter="url(#f119kt8xprv8n6)" rx="12" ry="12" style="stroke:#a80036;stroke-width:2"/><polygon fill="#A80036" points="333 145 339 140 337 145 339 150 333 145" style="stroke:#a80036;stroke-width:1"/><text x="313" y="186.535" fill="#000" font-family="sans-serif" font-size="14" lengthAdjust="spacingAndGlyphs" textLength="48">Tempo</text><path fill="#FEFECE" d="M396.5,152.5 C396.5,142.5 430,142.5 430,142.5 C430,142.5 463.5,142.5 463.5,152.5 L463.5,177.9883 C463.5,187.9883 430,187.9883 430,187.9883 C430,187.9883 396.5,187.9883 396.5,177.9883 L396.5,152.5" filter="url(#f119kt8xprv8n6)" style="stroke:#000;stroke-width:1.5"/><path fill="none" d="M396.5,152.5 C396.5,162.5 430,162.5 430,162.5 C430,162.5 463.5,162.5 463.5,152.5" style="stroke:#000;stroke-width:1.5"/><text x="406.5" y="180.035" fill="#000" font-family="sans-serif" font-size="14" lengthAdjust="spacingAndGlyphs" textLength="47">Ledger</text><polygon fill="#FEFECE" points="163 334 163 370.488 249 370.488 249 344 239 334 163 334" filter="url(#f119kt8xprv8n6)" style="stroke:#000;stroke-width:1.5"/><path fill="#FEFECE" d="M239,334 L239,344 L249,344" style="stroke:#000;stroke-width:1.5"/><text x="173" y="357.535" fill="#000" font-family="sans-serif" font-size="14" lengthAdjust="spacingAndGlyphs" textLength="66">atoms.zst</text><polygon fill="#FEFECE" points="259 18 269 8 415 8 415 44.488 405 54.488 259 54.488 259 18" filter="url(#f119kt8xprv8n6)" style="stroke:#000;stroke-width:1.5"/><line style="stroke:#000;stroke-width:1.5" x1="405" x2="414" y1="18" y2="9"/><line style="stroke:#000;stroke-width:1.5" x1="259" x2="405" y1="18" y2="18"/><line style="stroke:#000;stroke-width:1.5" x1="405" x2="405" y1="18" y2="54.488"/><text x="274" y="41.535" fill="#000" font-family="sans-serif" font-size="14" lengthAdjust="spacingAndGlyphs" textLength="116">Other Core Node</text><path id="pump-atoms" fill="none" d="M150.4746,189.2878 C153.8252,210.197 159.6269,241.0153 168,267 C175.6844,290.8475 187.994,316.9775 196.5109,333.8837" style="stroke:#a80036;stroke-width:1"/><text x="173" y="263.568" fill="#000" font-family="sans-serif" font-size="13" lengthAdjust="spacingAndGlyphs" textLength="34">loads</text><path id="pump-atomos" fill="none" d="M187.2344,165 C196.9777,165 206.7209,165 216.4642,165" style="stroke:#a80036;stroke-width:1"/><polygon fill="#A80036" points="221.559 165 212.559 161 216.559 165 212.559 169 221.559 165" style="stroke:#a80036;stroke-width:1"/><path id="atomos-cm" fill="none" d="M262.9262,189.0181 C274.1504,209.7586 290.9249,240.4809 306,267 C316.75,285.9107 329.1455,306.9877 338.9051,323.4225" style="stroke:#a80036;stroke-width:1"/><polygon fill="#A80036" points="341.584 327.929 340.423 318.149 339.029 323.631 333.547 322.237 341.584 327.929" style="stroke:#a80036;stroke-width:1"/><text x="307" y="263.568" fill="#000" font-family="sans-serif" font-size="13" lengthAdjust="spacingAndGlyphs" textLength="29">uses</text><path id="atomos-tempo" fill="none" d="M278.207,165 C287.9855,165 297.764,165 307.5425,165" style="stroke:#a80036;stroke-width:1"/><polygon fill="#A80036" points="312.656 165 303.656 161 307.656 165 303.656 169 312.656 165" style="stroke:#a80036;stroke-width:1"/><path id="tempo-cm" fill="none" d="M339.445,189.0642 C342.9127,223.1934 349.2535,285.5998 353.0008,322.482" style="stroke:#a80036;stroke-width:1"/><polygon fill="#A80036" points="353.534 327.732 356.604 318.374 353.029 322.758 348.645 319.182 353.534 327.732" style="stroke:#a80036;stroke-width:1"/><text x="348" y="263.568" fill="#000" font-family="sans-serif" font-size="13" lengthAdjust="spacingAndGlyphs" textLength="29">uses</text><path id="tempo-ledger" fill="none" d="M361.3398,165 C371.313,165 381.2861,165 391.2592,165" style="stroke:#a80036;stroke-width:1"/><polygon fill="#A80036" points="396.474 165 387.474 161 391.474 165 387.474 169 396.474 165" style="stroke:#a80036;stroke-width:1"/><path id="core2-tempo" fill="none" d="M337,59.0394 C337,81.564 337,113.0916 337,135.8942" style="stroke:#a80036;stroke-width:1"/><polygon fill="#A80036" points="337 140.911 341 131.911 337 135.911 333 131.911 337 140.911" style="stroke:#a80036;stroke-width:1"/><polygon fill="#A80036" points="337 54.035 333 63.035 337 59.035 341 63.035 337 54.035" style="stroke:#a80036;stroke-width:1"/><text x="338" y="97.568" fill="#000" font-family="sans-serif" font-size="13" lengthAdjust="spacingAndGlyphs" textLength="49">gossips</text></g></svg>